<?xml version="1.0" standalone="no"?>
<!DOCTYPE svg PUBLIC "-//W3C//DTD SVG 20010904//EN"
 "http://www.w3.org/TR/2001/REC-SVG-20010904/DTD/svg10.dtd">
<svg version="1.0" xmlns="http://www.w3.org/2000/svg"
 width="700.000000pt" height="700.000000pt" viewBox="0 0 700.000000 700.000000"
 preserveAspectRatio="xMidYMid meet">
<metadata>
Created by potrace 1.11, written by Peter Selinger 2001-2013
</metadata>
<g transform="translate(0.000000,700.000000) scale(0.100000,-0.100000)"
fill="#000000" stroke="none">
<path d="M5255 6981 c-156 -39 -211 -76 -420 -287 -864 -872 -1729 -1745
-1950 -1969 -148 -150 -614 -620 -1035 -1045 -421 -424 -862 -870 -981 -991
l-217 -220 -27 -97 c-15 -53 -33 -117 -41 -142 -7 -25 -41 -142 -74 -260 -33
-118 -69 -244 -80 -280 -10 -36 -44 -155 -75 -265 -31 -110 -61 -213 -66 -230
-11 -33 -177 -613 -189 -660 -4 -16 -29 -104 -55 -195 -37 -131 -45 -173 -40
-207 11 -72 79 -133 150 -133 13 0 118 27 232 59 115 33 251 72 303 87 52 14
154 44 225 64 72 21 186 54 255 73 69 20 260 74 425 122 165 47 307 88 315 90
49 11 544 156 556 163 14 8 637 625 3124 3092 1324 1313 1276 1265 1321 1342
57 98 80 176 84 288 6 149 -27 273 -101 385 -18 28 -269 287 -559 577 -563
565 -574 574 -724 625 -100 33 -253 39 -356 14z m291 -332 c73 -33 1074 -1033
1105 -1104 33 -76 37 -170 9 -247 -22 -61 -36 -76 -393 -430 -203 -203 -374
-368 -381 -368 -6 0 -323 313 -704 694 l-693 694 368 371 c368 371 391 390
478 411 55 13 159 3 211 -21z m-2223 -3101 c-840 -840 -1528 -1526 -1530
-1525 -1 2 -55 108 -119 236 -147 294 -136 284 -333 287 -75 1 -142 3 -149 3
-7 1 198 213 455 472 257 258 599 602 758 764 160 161 643 649 1075 1084 l784
792 293 -293 293 -293 -1527 -1527z m2050 1004 l288 -287 -439 -435 c-242
-239 -810 -802 -1261 -1250 -936 -928 -1387 -1374 -1404 -1389 -9 -7 -12 26
-12 138 0 210 12 197 -290 347 l-236 118 1528 1528 c840 840 1530 1525 1533
1523 3 -3 135 -134 293 -293z m-3903 -2599 c74 -150 146 -287 160 -304 17 -20
114 -74 310 -172 l285 -142 0 -210 0 -209 -325 -93 c-179 -51 -349 -100 -379
-109 l-53 -17 -385 385 -385 385 92 319 c50 175 98 343 106 373 8 29 16 57 19
61 2 4 98 7 212 7 l208 0 135 -274z m-360 -1353 c0 -3 -152 -47 -338 -99 -185
-52 -345 -99 -355 -104 -10 -5 -20 -7 -22 -5 -2 2 35 136 82 298 46 162 91
319 99 349 8 29 17 58 21 63 5 9 513 -489 513 -502z"/>
</g>
</svg>
