<?xml version="1.0" encoding="UTF-8" standalone="no"?>
<svg
   xmlns:dc="http://purl.org/dc/elements/1.1/"
   xmlns:cc="http://creativecommons.org/ns#"
   xmlns:rdf="http://www.w3.org/1999/02/22-rdf-syntax-ns#"
   xmlns:svg="http://www.w3.org/2000/svg"
   xmlns="http://www.w3.org/2000/svg"
   xmlns:sodipodi="http://sodipodi.sourceforge.net/DTD/sodipodi-0.dtd"
   xmlns:inkscape="http://www.inkscape.org/namespaces/inkscape"
   height="48"
   viewBox="-40 0 35.999999 36.00011"
   width="48"
   version="1.1"
   id="svg933"
   sodipodi:docname="bin.svg"
   inkscape:version="0.92.4 (5da689c313, 2019-01-14)">
  <metadata
     id="metadata939">
    <rdf:RDF>
      <cc:Work
         rdf:about="">
        <dc:format>image/svg+xml</dc:format>
        <dc:type
           rdf:resource="http://purl.org/dc/dcmitype/StillImage" />
        <dc:title></dc:title>
      </cc:Work>
    </rdf:RDF>
  </metadata>
  <defs
     id="defs937" />
  <sodipodi:namedview
     pagecolor="#ffffff"
     bordercolor="#666666"
     borderopacity="1"
     objecttolerance="10"
     gridtolerance="10"
     guidetolerance="10"
     inkscape:pageopacity="0"
     inkscape:pageshadow="2"
     inkscape:window-width="1920"
     inkscape:window-height="1018"
     id="namedview935"
     showgrid="false"
     fit-margin-top="0"
     fit-margin-left="0"
     fit-margin-right="0"
     fit-margin-bottom="0"
     units="px"
     inkscape:zoom="11.992531"
     inkscape:cx="26.088225"
     inkscape:cy="32.669675"
     inkscape:window-x="-8"
     inkscape:window-y="-8"
     inkscape:window-maximized="1"
     inkscape:current-layer="svg933" />
  <path
     d="m -16.807199,13.043001 c -0.465676,0 -0.843091,0.37741 -0.843091,0.84309 v 15.93442 c 0,0.46535 0.377415,0.8431 0.843091,0.8431 0.465677,0 0.843092,-0.37775 0.843092,-0.8431 v -15.93442 c 0,-0.46568 -0.377415,-0.84309 -0.843092,-0.84309 z m 0,0"
     id="path925"
     inkscape:connector-curvature="0"
     style="stroke-width:0.08430914" />
  <path
     d="m -26.755676,13.043001 c -0.465677,0 -0.843092,0.37741 -0.843092,0.84309 v 15.93442 c 0,0.46535 0.377415,0.8431 0.843092,0.8431 0.465676,0 0.843091,-0.37775 0.843091,-0.8431 v -15.93442 c 0,-0.46568 -0.377415,-0.84309 -0.843091,-0.84309 z m 0,0"
     id="path927"
     inkscape:connector-curvature="0"
     style="stroke-width:0.08430914" />
  <path
     d="m -34.224825,10.717581 v 20.77199 c 0,1.22775 0.450198,2.38075 1.236644,3.20803 0.782823,0.82959 1.872255,1.30053 3.012405,1.30251 h 15.951551 c 1.140479,-0.002 2.229911,-0.47292 3.012405,-1.30251 0.786446,-0.82728 1.2366444,-1.98028 1.2366444,-3.20803 v -20.77199 c 1.563342,-0.41496 2.576369,-1.9252801 2.367242,-3.5294601 -0.209455,-1.60385 -1.575856,-2.80361 -3.1935374,-2.80394 h -4.316562 v -1.05386 c 0.0049,-0.88623 -0.34547,-1.73723 -0.972849,-2.36328998 -0.627378,-0.62573 -1.479691,-0.97417 -2.365925,-0.96692000475 h -7.486388 C -26.629428,-0.00688908 -27.481741,0.34130092 -28.109119,0.96703092 -28.736498,1.5930909 -29.086908,2.4440909 -29.081968,3.3303209 v 1.05386 h -4.316562 c -1.617681,3.3e-4 -2.984082,1.20009 -3.193538,2.80394 -0.209126,1.60418 0.803901,3.1145001 2.367243,3.5294601 z m 20.2006,23.59635 h -15.951551 c -1.441489,0 -2.562866,-1.23829 -2.562866,-2.82436 v -20.69789 h 21.077283 v 20.69789 c 0,1.58607 -1.121377,2.82436 -2.562866,2.82436 z M -27.395785,3.3303209 c -0.0056,-0.439 0.166972,-0.86153 0.47852,-1.17144 0.311219,-0.3099 0.734741,-0.48016 1.17407,-0.47259 h 7.486388 c 0.43933,-0.008 0.862851,0.16269 1.174071,0.47259 0.311548,0.30958 0.484119,0.73244 0.47852,1.17144 v 1.05386 h -10.791569 z m -6.002745,2.74005 h 22.797059 c 0.8381514,0 1.5175644,0.67941 1.5175644,1.51756 0,0.83815 -0.679413,1.51757 -1.5175644,1.51757 H -33.39853 c -0.838151,0 -1.517564,-0.67942 -1.517564,-1.51757 0,-0.83815 0.679413,-1.51756 1.517564,-1.51756 z m 0,0"
     id="path929"
     inkscape:connector-curvature="0"
     style="stroke-width:0.08430914" />
  <path
     d="m -21.781438,13.043001 c -0.465676,0 -0.843091,0.37741 -0.843091,0.84309 v 15.93442 c 0,0.46535 0.377415,0.8431 0.843091,0.8431 0.465677,0 0.843092,-0.37775 0.843092,-0.8431 v -15.93442 c 0,-0.46568 -0.377415,-0.84309 -0.843092,-0.84309 z m 0,0"
     id="path931"
     inkscape:connector-curvature="0"
     style="stroke-width:0.08430914" />
</svg>
