<?xml version="1.0" encoding="UTF-8" standalone="no"?>
<!-- Generator: Adobe Illustrator 19.0.0, SVG Export Plug-In . SVG Version: 6.00 Build 0)  -->

<svg
   xmlns:dc="http://purl.org/dc/elements/1.1/"
   xmlns:cc="http://creativecommons.org/ns#"
   xmlns:rdf="http://www.w3.org/1999/02/22-rdf-syntax-ns#"
   xmlns:svg="http://www.w3.org/2000/svg"
   xmlns="http://www.w3.org/2000/svg"
   xmlns:sodipodi="http://sodipodi.sourceforge.net/DTD/sodipodi-0.dtd"
   xmlns:inkscape="http://www.inkscape.org/namespaces/inkscape"
   version="1.1"
   id="Layer_1"
   x="0px"
   y="0px"
   viewBox="0 0 48 48"
   xml:space="preserve"
   sodipodi:docname="save.svg"
   width="48"
   height="48"
   inkscape:version="0.92.4 (5da689c313, 2019-01-14)"><metadata
   id="metadata1045"><rdf:RDF><cc:Work
       rdf:about=""><dc:format>image/svg+xml</dc:format><dc:type
         rdf:resource="http://purl.org/dc/dcmitype/StillImage" /><dc:title></dc:title></cc:Work></rdf:RDF></metadata><defs
   id="defs1043" /><sodipodi:namedview
   pagecolor="#ffffff"
   bordercolor="#666666"
   borderopacity="1"
   objecttolerance="10"
   gridtolerance="10"
   guidetolerance="10"
   inkscape:pageopacity="0"
   inkscape:pageshadow="2"
   inkscape:window-width="1920"
   inkscape:window-height="1018"
   id="namedview1041"
   showgrid="false"
   fit-margin-top="0"
   fit-margin-left="0"
   fit-margin-right="0"
   fit-margin-bottom="0"
   inkscape:zoom="13.3125"
   inkscape:cx="25.98405"
   inkscape:cy="23.979668"
   inkscape:window-x="-8"
   inkscape:window-y="-8"
   inkscape:window-maximized="1"
   inkscape:current-layer="Layer_1" />
<g
   id="g1002"
   transform="scale(0.09375)">
	<g
   id="g1000">
		<path
   d="M 506.513,124.12 387.879,5.486 C 387.878,5.485 387.876,5.483 387.874,5.482 384.467,2.076 379.697,0 374.634,0 359.616,0 33.034,0 18.732,0 8.387,0 0,8.387 0,18.732 V 493.269 C 0,503.613 8.387,512 18.732,512 c 22.563,0 452.353,0 474.537,0 10.345,0 18.732,-8.387 18.732,-18.732 V 137.366 C 512,132.398 510.027,127.634 506.513,124.12 Z M 156.098,37.463 H 355.903 V 148.286 H 156.098 Z M 400.45,474.537 H 111.55 V 316.935 h 288.9 z m 74.087,0 H 437.914 V 298.204 c 0,-10.345 -8.387,-18.732 -18.732,-18.732 H 92.818 c -10.345,0 -18.732,8.387 -18.732,18.732 V 474.537 H 37.463 V 37.463 h 81.171 v 129.555 c 0,10.345 8.387,18.732 18.732,18.732 h 237.268 c 10.345,0 18.732,-8.387 18.732,-18.732 V 63.954 l 81.171,81.171 z"
   id="path998"
   inkscape:connector-curvature="0" />
	</g>
</g>
<g
   id="g1008"
   transform="scale(0.09375)">
	<g
   id="g1006">
		<path
   d="m 309.514,55.015 c -10.345,0 -18.732,8.387 -18.732,18.732 v 38.256 c 0,10.346 8.386,18.732 18.732,18.732 10.345,0 18.732,-8.387 18.732,-18.732 V 73.747 c 0,-10.345 -8.387,-18.732 -18.732,-18.732 z"
   id="path1004"
   inkscape:connector-curvature="0" />
	</g>
</g>
<g
   id="g1010"
   transform="scale(0.09375)">
</g>
<g
   id="g1012"
   transform="scale(0.09375)">
</g>
<g
   id="g1014"
   transform="scale(0.09375)">
</g>
<g
   id="g1016"
   transform="scale(0.09375)">
</g>
<g
   id="g1018"
   transform="scale(0.09375)">
</g>
<g
   id="g1020"
   transform="scale(0.09375)">
</g>
<g
   id="g1022"
   transform="scale(0.09375)">
</g>
<g
   id="g1024"
   transform="scale(0.09375)">
</g>
<g
   id="g1026"
   transform="scale(0.09375)">
</g>
<g
   id="g1028"
   transform="scale(0.09375)">
</g>
<g
   id="g1030"
   transform="scale(0.09375)">
</g>
<g
   id="g1032"
   transform="scale(0.09375)">
</g>
<g
   id="g1034"
   transform="scale(0.09375)">
</g>
<g
   id="g1036"
   transform="scale(0.09375)">
</g>
<g
   id="g1038"
   transform="scale(0.09375)">
</g>
</svg>